<?xml version="1.0" standalone="no"?>
<!DOCTYPE svg PUBLIC "-//W3C//DTD SVG 20010904//EN"
 "http://www.w3.org/TR/2001/REC-SVG-20010904/DTD/svg10.dtd">
<svg version="1.0" xmlns="http://www.w3.org/2000/svg"
 width="300.000000pt" height="210.000000pt" viewBox="0 0 300.000000 210.000000"
 preserveAspectRatio="xMidYMid meet">
<metadata>
Created by potrace 1.10, written by Peter Selinger 2001-2011
</metadata>
<g transform="translate(0.000000,210.000000) scale(0.050000,-0.050000)"
fill="#ffd700" stroke="none">
<path d="M140 4064 c0 -9 27 -36 60 -61 l60 -44 5 -1742 5 -1742 248 -168 249
-167 2252 0 2253 1 224 160 224 161 0 1742 0 1742 75 66 75 66 -810 1 -810 0
85 -75 86 -74 -6 -1570 -5 -1570 -83 260 c-46 143 -139 436 -207 650 -68 215
-176 557 -240 760 -65 204 -191 604 -280 890 -90 286 -180 565 -199 620 l-37
100 -400 5 -400 6 -41 -136 c-22 -74 -63 -211 -90 -305 -227 -778 -856 -2890
-865 -2898 -4 -5 -8 712 -8 1593 l0 1603 90 64 c50 36 90 68 90 71 0 4 -360 7
-800 7 -440 0 -800 -7 -800 -16z m2628 -478 c40 -119 166 -477 279 -796 l206
-580 -268 -6 c-147 -3 -382 -3 -523 0 l-255 6 230 804 c126 442 236 800 243
796 8 -5 47 -106 88 -224z m581 -1684 c19 -32 491 -1430 491 -1456 0 -30
-2109 -39 -2127 -10 -11 17 -9 26 235 867 95 327 172 599 172 605 0 20 1217
14 1229 -6z"/>
</g>
</svg>
