<?xml version="1.0" standalone="no"?>
<!DOCTYPE svg PUBLIC "-//W3C//DTD SVG 20010904//EN"
 "http://www.w3.org/TR/2001/REC-SVG-20010904/DTD/svg10.dtd">
<svg version="1.0" xmlns="http://www.w3.org/2000/svg"
 width="300.000000pt" height="210.000000pt" viewBox="0 0 300.000000 210.000000"
 preserveAspectRatio="xMidYMid meet">
<metadata>
Created by potrace 1.10, written by Peter Selinger 2001-2011
</metadata>
<g transform="translate(0.000000,210.000000) scale(0.100000,-0.100000)"
fill="#d1cfc7" stroke="none">
<path d="M70 2032 c0 -5 13 -18 30 -30 l30 -23 2 -871 3 -871 124 -83 124 -84
1127 0 1126 0 112 81 112 80 0 871 0 871 38 33 37 33 -405 0 -405 0 43 -37 42
-37 -2 -785 -3 -785 -42 130 c-22 72 -69 218 -103 325 -34 107 -88 278 -120
380 -32 102 -95 302 -140 445 -45 143 -90 283 -100 310 l-18 50 -200 3 -200 2
-20 -67 c-12 -38 -32 -106 -46 -153 -113 -389 -428 -1445 -432 -1449 -2 -2 -4
356 -4 797 l0 801 45 32 c25 18 45 34 45 36 0 2 -180 3 -400 3 -220 0 -400 -4
-400 -8z m1314 -239 c20 -59 83 -238 139 -398 l103 -290 -133 -3 c-74 -1 -192
-1 -262 0 l-128 3 115 402 c64 221 118 400 122 398 4 -2 24 -53 44 -112z m290
-842 c10 -16 246 -715 246 -728 0 -10 -104 -13 -529 -13 -292 0 -532 4 -535 8
-5 9 -4 13 118 434 47 163 86 299 86 302 0 10 608 7 614 -3z"/>
</g>
</svg>
