<?xml version="1.0" encoding="UTF-8"?>
<svg xmlns="http://www.w3.org/2000/svg" xmlns:xlink="http://www.w3.org/1999/xlink" width="22pt" height="16pt" viewBox="0 0 22 16" version="1.1">
<g id="surface1">
<path style=" stroke:none;fill-rule:nonzero;fill:rgb(100%,84.313725%,0%);fill-opacity:1;" d="M 0.511719 0.515625 C 0.511719 0.550781 0.613281 0.652344 0.734375 0.75 L 0.953125 0.917969 L 0.972656 7.539062 L 0.988281 14.164062 L 1.898438 14.800781 L 2.8125 15.4375 L 11.070312 15.4375 L 19.332031 15.433594 L 20.972656 14.214844 L 20.972656 0.964844 L 21.25 0.714844 L 21.523438 0.464844 L 18.554688 0.460938 L 15.582031 0.460938 L 15.894531 0.746094 L 16.210938 1.027344 L 16.1875 6.996094 L 16.171875 12.964844 L 15.867188 11.976562 C 15.695312 11.433594 15.355469 10.320312 15.105469 9.503906 C 14.855469 8.6875 14.460938 7.386719 14.226562 6.617188 C 13.988281 5.839844 13.527344 4.320312 13.199219 3.230469 C 12.871094 2.144531 12.539062 1.082031 12.46875 0.875 L 12.335938 0.496094 L 10.867188 0.476562 L 9.402344 0.453125 L 9.25 0.96875 C 9.171875 1.25 9.019531 1.773438 8.921875 2.128906 C 8.089844 5.085938 5.78125 13.117188 5.75 13.148438 C 5.734375 13.167969 5.71875 10.441406 5.71875 7.089844 L 5.71875 0.996094 L 6.050781 0.753906 C 6.234375 0.617188 6.378906 0.496094 6.378906 0.484375 C 6.378906 0.46875 5.058594 0.457031 3.445312 0.457031 C 1.832031 0.457031 0.511719 0.484375 0.511719 0.515625 Z M 10.148438 2.335938 C 10.296875 2.785156 10.757812 4.148438 11.171875 5.359375 L 11.925781 7.566406 L 10.945312 7.589844 C 10.40625 7.601562 9.542969 7.601562 9.027344 7.589844 L 8.09375 7.566406 L 8.9375 4.507812 C 9.398438 2.828125 9.800781 1.46875 9.828125 1.484375 C 9.855469 1.5 10 1.886719 10.148438 2.335938 Z M 12.28125 8.738281 C 12.347656 8.859375 14.078125 14.175781 14.078125 14.273438 C 14.078125 14.386719 6.347656 14.421875 6.28125 14.3125 C 6.242188 14.246094 6.246094 14.214844 7.144531 11.015625 C 7.492188 9.773438 7.773438 8.738281 7.773438 8.714844 C 7.773438 8.640625 12.234375 8.660156 12.28125 8.738281 Z M 12.28125 8.738281 "/>
</g>
</svg>
